<svg id="Capa_1" enable-background="new 0 0 512 512" height="512" viewBox="0 0 512 512" width="512" xmlns="http://www.w3.org/2000/svg"><g><g><g><path d="m256 359.674c-16.629 0-30.157 13.529-30.157 30.158v24.834c0 4.142 3.358 7.5 7.5 7.5h45.314c4.142 0 7.5-3.358 7.5-7.5v-24.834c0-16.629-13.528-30.158-30.157-30.158zm15.157 47.492h-30.314v-17.334c0-8.358 6.799-15.158 15.157-15.158s15.157 6.8 15.157 15.158z"/><path d="m503.29 272.639-42.335-111.168c7.833-1.594 13.746-8.534 13.746-16.831v-20.659c0-9.471-7.705-17.176-17.175-17.176h-86.193c-1.538-20.287-8.346-39.676-19.923-56.537-2.345-3.415-7.014-4.282-10.428-1.937-3.415 2.345-4.282 7.014-1.937 10.428 11.53 16.792 17.625 36.471 17.625 56.91 0 55.509-45.16 100.669-100.669 100.669s-100.669-45.16-100.669-100.669 45.159-100.669 100.668-100.669c21.717 0 42.399 6.809 59.81 19.691 3.33 2.464 8.026 1.762 10.49-1.568 2.463-3.33 1.761-8.026-1.568-10.49-20.012-14.807-43.779-22.633-68.732-22.633-60.798 0-110.791 47.15-115.333 106.805h-86.193c-9.471 0-17.175 7.705-17.175 17.176v20.659c0 8.297 5.913 15.237 13.746 16.831l-42.335 111.167c-2.011 5.279-1.297 11.208 1.909 15.86 2.196 3.186 5.368 5.492 8.965 6.629v199.373c0 9.649 7.851 17.5 17.5 17.5h437.833c9.649 0 17.5-7.851 17.5-17.5v-127.724c0-4.142-3.358-7.5-7.5-7.5s-7.5 3.358-7.5 7.5v127.724c0 1.378-1.122 2.5-2.5 2.5h-159.12v-107.168c0-32.972-26.825-59.796-59.796-59.796s-59.796 26.825-59.796 59.796v107.168h-159.122c-1.378 0-2.5-1.122-2.5-2.5v-198.573h442.833v34.923c0 4.142 3.358 7.5 7.5 7.5s7.5-3.358 7.5-7.5v-35.723c3.596-1.137 6.769-3.443 8.965-6.629 3.206-4.652 3.92-10.581 1.909-15.859zm-292.086 117.193c0-24.701 20.096-44.796 44.796-44.796s44.796 20.096 44.796 44.796v107.168h-89.593v-107.168zm248.497-265.851v20.659c0 1.2-.976 2.176-2.175 2.176h-90.121c2.246-8.022 3.649-16.392 4.101-25.011h86.019c1.201 0 2.176.976 2.176 2.176zm-436.973 153.996 44.236-116.161h27.317c4.142 0 7.5-3.358 7.5-7.5s-3.358-7.5-7.5-7.5h-39.807c-1.2 0-2.175-.976-2.175-2.176v-20.659c0-1.2.976-2.176 2.175-2.176h86.019c.453 8.618 1.856 16.989 4.101 25.011h-14.387c-4.142 0-7.5 3.358-7.5 7.5s3.358 7.5 7.5 7.5h19.738c2.257 5.168 4.881 10.139 7.839 14.883h-17.838c-10.191 0-18.482 8.291-18.482 18.482v16.666h-2.696c-4.142 0-7.5 3.358-7.5 7.5s3.358 7.5 7.5 7.5h31.938c4.142 0 7.5-3.358 7.5-7.5s-3.358-7.5-7.5-7.5h-14.242v-16.666c0-1.92 1.562-3.482 3.482-3.482h28.956c21.219 24.277 52.396 39.64 87.097 39.64s65.878-15.363 87.097-39.64h28.956c1.92 0 3.482 1.562 3.482 3.482v16.666h-14.241c-4.142 0-7.5 3.358-7.5 7.5s3.358 7.5 7.5 7.5h31.938c4.142 0 7.5-3.358 7.5-7.5s-3.358-7.5-7.5-7.5h-2.697v-16.666c0-10.191-8.291-18.482-18.482-18.482h-17.838c2.958-4.743 5.582-9.715 7.839-14.883h82.982l44.236 116.161c.354.929 0 1.657-.242 2.009s-.797.941-1.792.941h-462.476c-.995 0-1.549-.589-1.792-.941s-.595-1.08-.241-2.009z"/><path d="m152.943 334.315h-79.548c-9.583 0-17.38 7.796-17.38 17.38v74.971c-4.353 1.939-7.4 6.298-7.4 11.363v16.758c0 6.859 5.581 12.44 12.44 12.44h103.615c6.859 0 12.44-5.581 12.44-12.44v-16.758c0-4.823-2.765-9.004-6.787-11.067v-75.267c0-9.583-7.797-17.38-17.38-17.38zm-79.548 15h79.548c1.312 0 2.379 1.067 2.379 2.38v73.894h-84.307v-73.894c0-1.312 1.068-2.38 2.38-2.38zm88.715 102.912h-98.495v-11.638h98.495z"/><path d="m438.605 334.315h-79.548c-9.583 0-17.38 7.796-17.38 17.38v75.119c-4.187 2.005-7.093 6.271-7.093 11.215v16.758c0 6.859 5.581 12.44 12.44 12.44h103.615c6.859 0 12.44-5.581 12.44-12.44v-16.758c0-4.944-2.906-9.21-7.093-11.215v-75.119c-.001-9.583-7.798-17.38-17.381-17.38zm-79.548 15h79.548c1.313 0 2.38 1.067 2.38 2.38v73.894h-84.308v-73.894c0-1.312 1.067-2.38 2.38-2.38zm89.021 102.912h-98.495v-11.638h98.495z"/><path d="m278.657 433.247c-4.142 0-7.5 3.358-7.5 7.5v3.405c0 4.142 3.358 7.5 7.5 7.5s7.5-3.358 7.5-7.5v-3.405c0-4.143-3.358-7.5-7.5-7.5z"/><path d="m238.12 182.849c.674.047 1.346.07 2.015.07 3.507 0 6.93-.642 10.201-1.914 3.653-1.42 7.676-1.42 11.331.001 3.885 1.512 7.985 2.133 12.188 1.844 13.67-.934 24.903-11.921 26.127-25.557.891-9.914-3.34-19.358-11.316-25.266-3.338-2.473-5.517-5.957-6.133-9.81-1.05-6.562-4.422-12.578-9.493-16.938-10.533-9.057-26.375-9.004-36.852.119-5.382 4.688-8.773 11.158-9.546 18.217-.418 3.821-2.269 7.358-5.21 9.959-6.708 5.929-10.148 14.463-9.438 23.415 1.091 13.787 12.324 24.904 26.126 25.86zm-6.754-38.036c5.743-5.078 9.361-12.025 10.187-19.563.361-3.301 1.955-6.334 4.486-8.539 2.46-2.142 5.553-3.214 8.646-3.214 3.063 0 6.126 1.052 8.575 3.157 2.421 2.082 3.964 4.826 4.461 7.937 1.241 7.749 5.509 14.671 12.017 19.492 3.74 2.77 5.723 7.207 5.304 11.87-.572 6.367-5.821 11.497-12.211 11.934-1.984.135-3.912-.153-5.726-.858-7.163-2.788-15.05-2.788-22.209-.001-1.819.707-3.75.996-5.74.859-6.451-.447-11.7-5.64-12.211-12.08-.333-4.21 1.278-8.216 4.421-10.994z"/><path d="m229.719 97.347c12.289 0 22.287-9.998 22.287-22.287s-9.998-22.287-22.287-22.287-22.287 9.998-22.287 22.287 9.998 22.287 22.287 22.287zm0-29.574c4.018 0 7.287 3.269 7.287 7.287s-3.269 7.287-7.287 7.287-7.287-3.269-7.287-7.287 3.269-7.287 7.287-7.287z"/><path d="m304.567 75.061c0-12.289-9.998-22.287-22.287-22.287s-22.287 9.998-22.287 22.287 9.998 22.287 22.287 22.287 22.287-9.998 22.287-22.287zm-29.573 0c0-4.018 3.269-7.287 7.287-7.287s7.287 3.269 7.287 7.287-3.269 7.287-7.287 7.287-7.287-3.269-7.287-7.287z"/><path d="m170.426 110.642c0 12.289 9.998 22.287 22.287 22.287s22.287-9.998 22.287-22.287-9.998-22.287-22.287-22.287-22.287 9.998-22.287 22.287zm29.574 0c0 4.018-3.269 7.287-7.287 7.287s-7.287-3.269-7.287-7.287 3.269-7.287 7.287-7.287 7.287 3.269 7.287 7.287z"/><path d="m319.287 132.929c12.289 0 22.287-9.998 22.287-22.287s-9.998-22.287-22.287-22.287-22.287 9.998-22.287 22.287 9.998 22.287 22.287 22.287zm0-29.574c4.018 0 7.287 3.269 7.287 7.287s-3.269 7.287-7.287 7.287-7.287-3.269-7.287-7.287 3.269-7.287 7.287-7.287z"/></g></g></g></svg>