<svg height="480pt" viewBox="0 0 480 480" width="480pt" xmlns="http://www.w3.org/2000/svg"><path d="m456 264h-36.320312c12.683593-14.074219 15.882812-34.296875 8.167968-51.597656-7.71875-17.304688-24.902344-28.433594-43.847656-28.402344-6.324219 0-12.582031 1.277344-18.398438 3.761719-4.96875-11.964844-16.648437-19.761719-29.601562-19.761719-14.808594-.65625-27.921875 9.496094-30.992188 24h-17.328124c-.75-10.160156-5.460938-19.617188-13.121094-26.335938-8.335938-6.324218-18.964844-8.804687-29.238282-6.824218-7.644531-15.648438-24.378906-24.71875-41.664062-22.582032-17.285156 2.136719-31.308594 15.007813-34.914062 32.046876l-1.503907-.066407c-2.558593-.117187-5.175781-.238281-7.238281-.238281-23.3125-.875-44.632812 13.074219-53.167969 34.785156-6.050781-2.09375-12.4375-3.039062-18.832031-2.785156-22.082031.027344-39.972656 17.917969-40 40 .03125 8.683594 2.914062 17.117188 8.207031 24h-32.207031c-13.253906 0-24 10.746094-24 24s10.746094 24 24 24h8v48c0 70.65625 55.929688 120 136 120h144c80.070312 0 136-49.34375 136-120v-48h8c13.253906 0 24-10.746094 24-24s-10.746094-24-24-24zm-368-48c9.832031 0 14.679688 1.40625 17.921875 5.191406 2.074219 2.460938 5.421875 3.441406 8.496094 2.480469 3.074219-.957031 5.273437-3.667969 5.582031-6.871094 1.871094-19.289062 18.335938-32.800781 40-32.800781 1.847656 0 4.199219.113281 6.496094.214844 8.695312.425781 12 .5625 14.976562-2.3125 1.597656-1.550782 2.507813-3.675782 2.527344-5.902344.28125-12.132812 9.375-22.242188 21.410156-23.808594 12.03125-1.5625 23.40625 5.886719 26.78125 17.542969.46875 2.109375 1.769532 3.9375 3.605469 5.070313 1.835937 1.136718 4.054687 1.480468 6.148437.957031 7.453126-2.835938 15.808594-1.972657 22.527344 2.328125 5.664063 5.679687 8.433594 13.628906 7.535156 21.597656-.085937 2.175781.71875 4.289062 2.226563 5.855469 1.507813 1.570312 3.589844 2.457031 5.765625 2.457031h32c4.417969 0 8-3.582031 8-8-.28125-4.324219 1.316406-8.558594 4.378906-11.621094s7.296875-4.660156 11.621094-4.378906c8.722656 0 15.839844 6.984375 16 15.703125v.496094c0 3.03125 1.710938 5.800781 4.421875 7.15625s5.953125 1.0625 8.378906-.753907c5.5-4.253906 12.246094-6.570312 19.199219-6.601562 17.671875 0 32 14.328125 32 32s-14.328125 32-32 32h-296c-13.253906 0-24-10.746094-24-24s10.746094-24 24-24zm344 112h-72c-4.417969 0-8 3.582031-8 8s3.582031 8 8 8h72v16c0 51.769531-37.105469 104-120 104h-144c-82.894531 0-120-52.230469-120-104v-16h280c4.417969 0 8-3.582031 8-8s-3.582031-8-8-8h-280v-16h384zm24-32h-432c-4.417969 0-8-3.582031-8-8s3.582031-8 8-8h432c4.417969 0 8 3.582031 8 8s-3.582031 8-8 8zm0 0"/><path d="m136 432c0 4.417969 3.582031 8 8 8h208c4.417969 0 8-3.582031 8-8s-3.582031-8-8-8h-208c-4.417969 0-8 3.582031-8 8zm0 0"/><path d="m184 408h16c4.417969 0 8-3.582031 8-8s-3.582031-8-8-8h-16c-4.417969 0-8 3.582031-8 8s3.582031 8 8 8zm0 0"/><path d="m232 408h16c4.417969 0 8-3.582031 8-8s-3.582031-8-8-8h-16c-4.417969 0-8 3.582031-8 8s3.582031 8 8 8zm0 0"/><path d="m280 408h16c4.417969 0 8-3.582031 8-8s-3.582031-8-8-8h-16c-4.417969 0-8 3.582031-8 8s3.582031 8 8 8zm0 0"/><path d="m104 80c0-17.671875-14.328125-32-32-32s-32 14.328125-32 32 14.328125 32 32 32 32-14.328125 32-32zm-48 0c0-8.835938 7.164062-16 16-16s16 7.164062 16 16-7.164062 16-16 16-16-7.164062-16-16zm0 0"/><path d="m272 64c17.671875 0 32-14.328125 32-32s-14.328125-32-32-32-32 14.328125-32 32 14.328125 32 32 32zm0-48c8.835938 0 16 7.164062 16 16s-7.164062 16-16 16-16-7.164062-16-16 7.164062-16 16-16zm0 0"/><path d="m352 152c22.089844 0 40-17.910156 40-40s-17.910156-40-40-40-40 17.910156-40 40c.027344 22.082031 17.917969 39.972656 40 40zm0-64c13.253906 0 24 10.746094 24 24s-10.746094 24-24 24-24-10.746094-24-24 10.746094-24 24-24zm0 0"/><path d="m192 88c0-13.253906-10.746094-24-24-24s-24 10.746094-24 24 10.746094 24 24 24 24-10.746094 24-24zm-32 0c0-4.417969 3.582031-8 8-8s8 3.582031 8 8-3.582031 8-8 8-8-3.582031-8-8zm0 0"/><path d="m440 96c13.253906 0 24-10.746094 24-24s-10.746094-24-24-24-24 10.746094-24 24 10.746094 24 24 24zm0-32c4.417969 0 8 3.582031 8 8s-3.582031 8-8 8-8-3.582031-8-8 3.582031-8 8-8zm0 0"/><path d="m16 160c0 13.253906 10.746094 24 24 24s24-10.746094 24-24-10.746094-24-24-24-24 10.746094-24 24zm32 0c0 4.417969-3.582031 8-8 8s-8-3.582031-8-8 3.582031-8 8-8 8 3.582031 8 8zm0 0"/><path d="m184 216h8c4.417969 0 8-3.582031 8-8s-3.582031-8-8-8h-8c-4.417969 0-8 3.582031-8 8s3.582031 8 8 8zm0 0"/><path d="m136 248h8c4.417969 0 8-3.582031 8-8s-3.582031-8-8-8h-8c-4.417969 0-8 3.582031-8 8s3.582031 8 8 8zm0 0"/><path d="m232 240h8c4.417969 0 8-3.582031 8-8s-3.582031-8-8-8h-8c-4.417969 0-8 3.582031-8 8s3.582031 8 8 8zm0 0"/><path d="m304 248h8c4.417969 0 8-3.582031 8-8s-3.582031-8-8-8h-8c-4.417969 0-8 3.582031-8 8s3.582031 8 8 8zm0 0"/><path d="m376 232h8c4.417969 0 8-3.582031 8-8s-3.582031-8-8-8h-8c-4.417969 0-8 3.582031-8 8s3.582031 8 8 8zm0 0"/></svg>