<svg height="512" viewBox="0 0 60 54" width="512" xmlns="http://www.w3.org/2000/svg"><g id="Page-1" fill="none" fill-rule="evenodd"><g id="038---Pet-Health" fill="rgb(0,0,0)" fill-rule="nonzero"><path id="Shape" d="m44.5 0c-5.4389667.01258661-10.6519056 2.17721457-14.5 6.021-3.8480944-3.84378543-9.0610333-6.00841339-14.5-6.021-8.691 0-15.5 8.4-15.5 19.121.0621104 4.8275472 1.23327568 9.5761896 3.423 13.879h-2.423c-.55228475 0-1 .4477153-1 1s.44771525 1 1 1h3.5c4.421 7.606 12.391 14.82 25.19 18.952.2003446.0640111.4156554.0640111.616 0 13.361-4.313 21.459-11.983 25.751-19.952h2.943c.5522847 0 1-.4477153 1-1s-.4477153-1-1-1h-1.942c1.8881303-4.0339905 2.8912517-8.4252892 2.942-12.879 0-10.721-6.809-19.121-15.5-19.121zm10.341 32h-1.164l-1.748-4.372c-.1495015-.3732385-.5080005-.6206422-.91-.628-.4003099-.0011784-.7646756.2307971-.933.594l-2.953 6.645-1.418-4.247c.707207-.5562374 1.2780514-1.2666291 1.669-2.077.5520914-1.098274.7361613-2.345041.525-3.556-.1845372-1.1534747-.9050514-2.1511382-1.942-2.689-1.988-.963-4.579.274-5.78 2.754s-.568 5.282 1.417 6.244c.4502138.2173623.9440661.3291972 1.444.327.2887304-.0046096.5759641-.0425271.856-.113l2.148 6.434c.1303288.3915645.4878078.6628514.9.683h.048c.3952897.0000502.7535124-.2327554.914-.594l3.037-6.835 1.12 2.8c.1514925.380382.5195609.629987.929.63h.767c-4.167 7.159-11.688 13.976-23.767 17.948-11.515-3.786-18.888-10.158-23.163-16.948h1.163c.37902596.0001766.72557542-.2139484.895-.553l1.052-2.105 3.139 7.064c.1604876.3612446.5187103.5940502.914.594.0289813.0014729.0580187.0014729.087 0 .4247667-.037084.7792993-.3394203.883-.753l2.063-8.257c.4719247-.0066711.9368475-.1151418 1.363-.318 1.985-.962 2.621-3.763 1.417-6.244s-3.791-3.716-5.78-2.754c-1.0369486.5378618-1.7574628 1.5355253-1.942 2.689-.3996697 2.4811451.8004921 4.9462773 3 6.162l-1.355 5.418-2.82-6.345c-.1563043-.3562658-.5050465-.5895408-.894-.598-.38792109-.0124282-.74697782.2041022-.917.553l-1.723 3.447h-1.707c-2.34209883-4.2559717-3.60400037-9.0216673-3.675-13.879 0-9.6 5.93-17.121 13.5-17.121 5.2275284.04289306 10.2004713 2.26335813 13.722 6.127.1895987.23556815.4756096.37269166.778.373.3023904-.00030834.5884013-.13743185.778-.373 3.5140535-3.87397186 8.4917702-6.09656845 13.722-6.127 7.57 0 13.5 7.521 13.5 17.121-.0591928 4.4774605-1.1396341 8.8823367-3.159 12.879zm-12.856-6.7c.4250093-1.0571361 1.3841868-1.8052411 2.513-1.96.2075542-.0022772.4128496.0432299.6.133.4648931.2690365.7793739.7378049.852 1.27.1241627.7855535-.0021412 1.5902598-.361 2.3-.71 1.462-2.134 2.3-3.108 1.827s-1.205-2.11-.496-3.57zm-27.931-.56c.0726261-.5321951.3871069-1.0009635.852-1.27.1871504-.0897701.3924458-.1352772.6-.133 1.1288132.1547589 2.0879907.9028639 2.513 1.96.709 1.463.484 3.1-.492 3.572s-2.4-.365-3.108-1.827c-.3606456-.7098806-.4883631-1.515376-.365-2.302z"/><path id="Shape" d="m15.5 4c-.9467597-.00199478-1.8884992.13754716-2.794.414-.5279842.16237172-.8243717.72201578-.662 1.25s.7220158.82437172 1.25.662c.7150194-.21781218 1.458543-.3276892 2.206-.326.5522847 0 1-.44771525 1-1s-.4477153-1-1-1z"/><path id="Shape" d="m5 20.121c.55228475 0 1-.4477153 1-1 0-4.592 1.818-9.046 4.632-11.347.2828543-.22417911.4229611-.58338138.3665971-.93987253-.0563639-.35649114-.3004518-.65494932-.6386694-.78093227-.3382175-.12598295-.71807873-.05994008-.9939277.1728048-3.31 2.706-5.366 7.648-5.366 12.895 0 .5522847.44771525 1 1 1z"/><path id="Shape" d="m30 25c-3.955 0-5.321 2.232-6.643 4.39-.587983 1.0503635-1.3030266 2.0243543-2.129 2.9-2.0544441 2.0355593-2.7476569 5.0749411-1.779 7.8.716965 1.819424 2.5059101 2.9866506 4.46 2.91 1.3016149.020029 2.5733119-.3909784 3.617-1.169 1.4634513-1.1073958 3.4845487-1.1073958 4.948 0 1.0436881.7780216 2.3153851 1.189029 3.617 1.169 1.9538375.0768059 3.7427066-1.0899699 4.46-2.909.9686569-2.7250589.2754441-5.7644407-1.779-7.8-.8259734-.8756457-1.541017-1.8496365-2.129-2.9-1.322-2.159-2.688-4.391-6.643-4.391zm4.937 5.435c.6706899 1.1876783 1.4858948 2.287718 2.427 3.275 1.462598 1.4753496 1.9782042 3.6442918 1.336 5.62-.4082757 1.0694435-1.466869 1.7470406-2.609 1.67-.9118787.0208733-1.8025585-.2764914-2.519-.841-2.1306385-1.5452999-5.0133615-1.5452999-7.144 0-.7164415.5645086-1.6071213.8618733-2.519.841-1.1424883.0774952-2.2016152-.6001838-2.61-1.67-.6419498-1.9758933-.1259511-4.1448633 1.337-5.62.9411052-.987282 1.7563101-2.0873217 2.427-3.275 1.266-2.069 2.103-3.435 4.937-3.435s3.671 1.366 4.937 3.435z"/><path id="Shape" d="m24.335 23.973c.1853484-.0001167.3704633-.0131482.554-.039 2.727-.392 4.533-3.6 4.024-7.146s-3.137-6.115-5.875-5.722-4.533 3.6-4.024 7.145c.476 3.308 2.798 5.762 5.321 5.762zm-1.012-10.927c1.631-.232 3.263 1.615 3.61 4.027s-.72 4.65-2.329 4.881-3.263-1.614-3.61-4.027.72-4.65 2.329-4.881z"/><path id="Shape" d="m36.962 11.066c-2.74-.4-5.364 2.175-5.875 5.723s1.3 6.753 4.024 7.145c.1835367.0258518.3686516.0388833.554.039 2.523 0 4.845-2.454 5.321-5.761.514-3.548-1.297-6.754-4.024-7.146zm2.044 6.861c-.347 2.415-2.016 4.266-3.61 4.027-1.609-.231-2.675-2.466-2.329-4.881.328-2.277 1.817-4.047 3.335-4.047.0920243.000156.1839215.0068395.275.02 1.609.231 2.676 2.466 2.329 4.881z"/></g></g></svg>