<svg id="Capa_1" enable-background="new 0 0 511.999 511.999" height="512" viewBox="0 0 511.999 511.999" width="512" xmlns="http://www.w3.org/2000/svg"><g><g><path d="m441.739 413.955c4.142 0 7.5-3.358 7.5-7.5v-372.632c0-9.942-8.088-18.03-18.03-18.03h-71.285c-1.107-8.888-8.693-15.793-17.876-15.793h-33.333c-4.142 0-7.5 3.358-7.5 7.5s3.358 7.5 7.5 7.5h33.333c1.67 0 3.03 1.359 3.03 3.03v44.622c0 1.67-1.359 3.03-3.03 3.03h-155.045c-1.67 0-3.03-1.359-3.03-3.03v-44.622c0-1.67 1.359-3.03 3.03-3.03h85.786c4.142 0 7.5-3.358 7.5-7.5s-3.358-7.5-7.5-7.5h-85.786c-9.183 0-16.769 6.905-17.876 15.793h-71.285c-9.941 0-18.03 8.088-18.03 18.03v269.485c-9.486.512-17.052 8.368-17.052 17.98v22.02c0 16.52 6.496 31.541 17.052 42.678v107.983c0 9.942 8.088 18.03 18.03 18.03h333.368c9.942 0 18.03-8.088 18.03-18.03v-51.588c0-4.142-3.358-7.5-7.5-7.5s-7.5 3.358-7.5 7.5v51.588c0 1.671-1.359 3.03-3.03 3.03h-333.368c-1.671 0-3.03-1.359-3.03-3.03v-96.337c8.911 4.949 19.155 7.779 30.051 7.779h226.801c.272 0 .54-.016.805-.044 16.06-.509 31.081-7.09 42.355-18.595 11.442-11.677 17.744-27.113 17.744-43.464v-278.235c0-9.942-8.088-18.03-18.029-18.03h-34.46v-16.25h71.131c1.67 0 3.03 1.359 3.03 3.03v372.631c-.001 4.143 3.357 7.501 7.499 7.501zm-316.876-23.543c-25.973 0-47.103-21.13-47.103-47.104v-22.02c0-1.67 1.359-3.029 3.029-3.029h205.742c1.67 0 3.03 1.359 3.03 3.029v22.02c0 18.817 8.411 35.705 21.672 47.104zm269.675-328.369c1.67 0 3.029 1.359 3.029 3.03v278.235c0 25.419-20.665 46.545-46.065 47.092-.025.001-.049.004-.073.005-19.297-.095-35.885-11.851-43.066-28.571h22.801c4.142 0 7.5-3.358 7.5-7.5s-3.358-7.5-7.5-7.5h-26.458c-.087-1.166-.146-2.339-.146-3.527v-8.447h26.604c4.142 0 7.5-3.358 7.5-7.5s-3.358-7.5-7.5-7.5h-26.676c-.732-9.275-8.497-16.602-17.957-16.602h-154.333v-50.085c0-4.142-3.358-7.5-7.5-7.5s-7.5 3.358-7.5 7.5v50.085h-22.386v-269.435c0-1.67 1.359-3.03 3.03-3.03h71.131v16.25h-33.745c-9.942 0-18.03 8.088-18.03 18.03v152.174c0 4.142 3.358 7.5 7.5 7.5s7.5-3.358 7.5-7.5v-152.174c0-1.67 1.359-3.03 3.03-3.03h33.745v.608c0 9.942 8.088 18.03 18.03 18.03h155.045c9.942 0 18.03-8.088 18.03-18.03v-.608z"/><path d="m234.007 187.232c-.452 4.123-2.447 7.938-5.619 10.741-6.968 6.16-10.542 15.027-9.805 24.326 1.136 14.322 12.805 25.871 27.144 26.864.701.049 1.399.073 2.094.073 3.644 0 7.2-.666 10.597-1.988 3.939-1.532 8.278-1.532 12.219 0 4.036 1.571 8.293 2.218 12.664 1.917 14.202-.971 25.871-12.385 27.142-26.549.925-10.299-3.47-20.112-11.756-26.25-3.599-2.665-5.948-6.424-6.614-10.585-1.091-6.817-4.594-13.066-9.863-17.598-10.94-9.407-27.399-9.354-38.284.125-5.594 4.87-9.116 11.591-9.919 18.924zm19.769-7.613c2.665-2.32 6.015-3.482 9.365-3.482 3.318 0 6.636 1.139 9.288 3.419 2.622 2.254 4.292 5.227 4.832 8.595 1.29 8.057 5.728 15.255 12.498 20.268 4.05 3 6.197 7.805 5.744 12.854-.62 6.896-6.305 12.453-13.226 12.926-2.149.146-4.236-.167-6.201-.931-7.449-2.898-15.652-2.898-23.098 0-1.969.767-4.062 1.078-6.214.93-6.987-.484-12.673-6.109-13.227-13.085-.361-4.556 1.384-8.894 4.787-11.902 5.973-5.28 9.736-12.505 10.595-20.345.39-3.575 2.116-6.86 4.857-9.247z"/><path d="m236.853 159.132c12.721 0 23.07-10.349 23.07-23.07s-10.349-23.07-23.07-23.07-23.07 10.349-23.07 23.07 10.349 23.07 23.07 23.07zm0-31.14c4.45 0 8.07 3.62 8.07 8.07s-3.62 8.07-8.07 8.07-8.07-3.62-8.07-8.07 3.62-8.07 8.07-8.07z"/><path d="m292.198 159.132c12.721 0 23.07-10.349 23.07-23.07s-10.349-23.07-23.07-23.07-23.07 10.349-23.07 23.07 10.349 23.07 23.07 23.07zm0-31.14c4.45 0 8.07 3.62 8.07 8.07s-3.62 8.07-8.07 8.07-8.07-3.62-8.07-8.07 3.62-8.07 8.07-8.07z"/><path d="m197.886 196.599c12.721 0 23.07-10.349 23.07-23.07s-10.349-23.07-23.07-23.07-23.07 10.349-23.07 23.07c.001 12.721 10.35 23.07 23.07 23.07zm0-31.141c4.45 0 8.07 3.62 8.07 8.07s-3.62 8.07-8.07 8.07-8.07-3.62-8.07-8.07c.001-4.449 3.621-8.07 8.07-8.07z"/><path d="m308.094 173.528c0 12.721 10.349 23.07 23.07 23.07s23.07-10.349 23.07-23.07-10.349-23.07-23.07-23.07c-12.72 0-23.07 10.35-23.07 23.07zm23.07-8.07c4.45 0 8.07 3.62 8.07 8.07s-3.62 8.07-8.07 8.07-8.07-3.62-8.07-8.07c0-4.449 3.621-8.07 8.07-8.07z"/><path d="m348.636 104.296c0 4.142 3.358 7.5 7.5 7.5h16.01c4.142 0 7.5-3.358 7.5-7.5s-3.358-7.5-7.5-7.5h-16.01c-4.142 0-7.5 3.358-7.5 7.5z"/><path d="m205.06 32.84c-.012 0-.023 0-.034 0-4.126 0-7.481 3.336-7.5 7.466-.019 4.142 3.324 7.515 7.466 7.534h.109.035c4.126 0 7.48-3.336 7.499-7.466.019-4.142-3.324-7.515-7.466-7.534z"/><path d="m323.99 47.841h.035c4.126 0 7.48-3.336 7.499-7.466.019-4.142-3.324-7.515-7.466-7.534h-.109c-.012 0-.023 0-.034 0-4.126 0-7.481 3.336-7.5 7.466-.019 4.142 3.324 7.515 7.466 7.534z"/><path d="m369.477 266.926h-209.903c-4.142 0-7.5 3.358-7.5 7.5s3.358 7.5 7.5 7.5h209.903c4.142 0 7.5-3.358 7.5-7.5s-3.358-7.5-7.5-7.5z"/><path d="m128.454 463.509c-4.142 0-7.5 3.358-7.5 7.5s3.358 7.5 7.5 7.5h15.767c4.142 0 7.5-3.358 7.5-7.5s-3.358-7.5-7.5-7.5z"/><path d="m205.386 442.921c0-4.142-3.358-7.5-7.5-7.5h-69.433c-4.142 0-7.5 3.358-7.5 7.5s3.358 7.5 7.5 7.5h69.433c4.143 0 7.5-3.358 7.5-7.5z"/></g></g></svg>